<svg width="16" height="16" viewBox="0 0 16 16" fill="none" xmlns="http://www.w3.org/2000/svg">
  <path d="M14.407 8.14418C14.407 7.59605 14.3625 7.19605 14.2662 6.78125H8.00391V9.25525H11.6797C11.6056 9.87012 11.2054 10.796 10.3161 11.4182L10.3036 11.5011L12.2836 13.0342L12.4208 13.0479C13.6807 11.8849 14.407 10.1738 14.407 8.14418Z" fill="#4285F4"/>
  <path d="M8.00277 14.6659C9.80364 14.6659 11.3155 14.0732 12.4198 13.0511L10.315 11.4214C9.75177 11.814 8.99584 12.0881 8.00277 12.0881C6.23898 12.0881 4.74196 10.9251 4.20832 9.31775L4.1301 9.32435L2.07123 10.9169L2.04431 10.9917C3.14113 13.1695 5.39409 14.6659 8.00277 14.6659Z" fill="#34A853"/>
  <path d="M4.20883 9.31751C4.06802 8.90271 3.98653 8.45824 3.98653 7.99898C3.98653 7.53971 4.06802 7.09525 4.20142 6.68045L4.19769 6.59212L2.11302 4.97394L2.04481 5.00636C1.59276 5.91008 1.33337 6.92491 1.33337 7.99898C1.33337 9.07304 1.59276 10.0878 2.04481 10.9916L4.20883 9.31751Z" fill="#FBBC05"/>
  <path d="M8.00277 3.91107C9.25524 3.91107 10.1001 4.45181 10.5818 4.90369L12.4642 3.06665C11.3081 1.99257 9.80364 1.33331 8.00277 1.33331C5.39409 1.33331 3.14113 2.8296 2.04431 5.00736L4.20091 6.68145C4.74196 5.07405 6.23898 3.91107 8.00277 3.91107Z" fill="#EB4335"/>
</svg>
