<svg width="184" height="41" viewBox="0 0 184 41" fill="none" xmlns="http://www.w3.org/2000/svg">
  <path d="M19.3724 30.1117C14.151 30.1117 9.90088 25.8638 9.90088 20.6402C9.90088 15.4166 14.1488 11.1686 19.3724 11.1686C24.596 11.1686 28.844 15.4166 28.844 20.6402C28.844 25.8638 24.596 30.1117 19.3724 30.1117ZM19.3724 17.3269C17.5442 17.3269 16.057 18.8141 16.057 20.6423C16.057 22.4706 17.5442 23.9578 19.3724 23.9578C21.2007 23.9578 22.6879 22.4706 22.6879 20.6423C22.6879 18.8141 21.2007 17.3269 19.3724 17.3269Z" fill="url(#paint0_linear_1_2118)"/>
  <path d="M36.8717 39.5979H2.12829C0.951904 39.5979 0 38.646 0 37.4696V2.12829C0 0.951904 0.951904 0 2.12829 0H35.922C37.6229 0 39 1.37713 39 3.07804C39 4.77895 37.6229 6.15608 35.922 6.15608H6.15608V33.444H32.8461V17.3177H19.1136V11.1617H36.8739C38.0503 11.1617 39.0022 12.1136 39.0022 13.29V37.4718C39.0022 38.6482 38.0503 39.6001 36.8739 39.6001L36.8717 39.5979Z" fill="url(#paint1_linear_1_2118)"/>
  <mask id="mask0_1_2118" style="mask-type:luminance" maskUnits="userSpaceOnUse" x="9" y="11" width="20" height="20">
    <path d="M19.3735 30.1172C14.1521 30.1172 9.90198 25.8692 9.90198 20.6456C9.90198 15.422 14.1499 11.1741 19.3735 11.1741C24.5971 11.1741 28.8451 15.422 28.8451 20.6456C28.8451 25.8692 24.5971 30.1172 19.3735 30.1172ZM19.3735 17.3323C17.5453 17.3323 16.0581 18.8195 16.0581 20.6478C16.0581 22.4761 17.5453 23.9633 19.3735 23.9633C21.2018 23.9633 22.689 22.4761 22.689 20.6478C22.689 18.8195 21.2018 17.3323 19.3735 17.3323Z" fill="white"/>
  </mask>
  <g mask="url(#mask0_1_2118)">
    <path d="M20.0695 11.165H7.6947V17.3211H20.0695V11.165Z" fill="url(#paint2_linear_1_2118)"/>
  </g>
  <path d="M49.6281 15.3792H54.0755V18H46.2329V4.06211H49.6281V15.3792ZM60.7379 18.1588C59.6525 18.1588 58.673 17.9272 57.7994 17.4639C56.9391 17.0007 56.2574 16.3388 55.7544 15.4785C55.2647 14.6181 55.0198 13.6121 55.0198 12.4606C55.0198 11.3223 55.2713 10.3229 55.7743 9.46255C56.2773 8.58895 56.9656 7.92051 57.8392 7.45724C58.7128 6.99396 59.6922 6.76233 60.7776 6.76233C61.863 6.76233 62.8425 6.99396 63.7161 7.45724C64.5897 7.92051 65.278 8.58895 65.781 9.46255C66.284 10.3229 66.5354 11.3223 66.5354 12.4606C66.5354 13.5989 66.2773 14.6049 65.7611 15.4785C65.2581 16.3388 64.5632 17.0007 63.6764 17.4639C62.8028 17.9272 61.8233 18.1588 60.7379 18.1588ZM60.7379 15.2204C61.3865 15.2204 61.9358 14.9821 62.3858 14.5056C62.8491 14.0291 63.0808 13.3474 63.0808 12.4606C63.0808 11.5737 62.8557 10.8921 62.4057 10.4156C61.9689 9.93905 61.4262 9.7008 60.7776 9.7008C60.1158 9.7008 59.5665 9.93905 59.1297 10.4156C58.6929 10.8788 58.4745 11.5605 58.4745 12.4606C58.4745 13.3474 58.6863 14.0291 59.1098 14.5056C59.5466 14.9821 60.0893 15.2204 60.7379 15.2204ZM71.7318 8.76764C72.1288 8.15876 72.6252 7.68225 73.2208 7.33811C73.8165 6.98073 74.4783 6.80204 75.2063 6.80204V10.3957H74.2731C73.426 10.3957 72.7907 10.581 72.3671 10.9516C71.9435 11.309 71.7318 11.9444 71.7318 12.8577V18H68.3366V6.92116H71.7318V8.76764ZM87.2726 12.2819C87.2726 12.5996 87.2527 12.9305 87.213 13.2746H79.5293C79.5823 13.9629 79.8007 14.4924 80.1845 14.863C80.5816 15.2204 81.0647 15.3991 81.6339 15.3991C82.481 15.3991 83.07 15.0417 83.401 14.3269H87.0145C86.8292 15.0549 86.4916 15.7101 86.0019 16.2925C85.5254 16.8749 84.9231 17.3316 84.1951 17.6625C83.4671 17.9934 82.6531 18.1588 81.753 18.1588C80.6676 18.1588 79.7014 17.9272 78.8543 17.4639C78.0071 17.0007 77.3453 16.3388 76.8688 15.4785C76.3923 14.6181 76.154 13.6121 76.154 12.4606C76.154 11.309 76.3857 10.3031 76.849 9.44269C77.3255 8.58233 77.9873 7.92051 78.8344 7.45724C79.6815 6.99396 80.6544 6.76233 81.753 6.76233C82.8252 6.76233 83.7782 6.98734 84.6121 7.43738C85.446 7.88742 86.0946 8.52938 86.5578 9.36327C87.0343 10.1972 87.2726 11.17 87.2726 12.2819ZM83.798 11.3884C83.798 10.806 83.5995 10.3428 83.2024 9.99862C82.8053 9.65447 82.309 9.4824 81.7133 9.4824C81.1442 9.4824 80.661 9.64785 80.2639 9.97876C79.8801 10.3097 79.6418 10.7796 79.5492 11.3884H83.798ZM103.2 6.80204C104.577 6.80204 105.669 7.21898 106.476 8.05287C107.297 8.88676 107.707 10.0449 107.707 11.5274V18H104.332V11.9841C104.332 11.2693 104.14 10.72 103.756 10.3361C103.385 9.93905 102.869 9.74051 102.207 9.74051C101.546 9.74051 101.023 9.93905 100.639 10.3361C100.268 10.72 100.083 11.2693 100.083 11.9841V18H96.7077V11.9841C96.7077 11.2693 96.5158 10.72 96.1319 10.3361C95.7613 9.93905 95.2451 9.74051 94.5833 9.74051C93.9214 9.74051 93.3986 9.93905 93.0147 10.3361C92.6441 10.72 92.4588 11.2693 92.4588 11.9841V18H89.0637V6.92116H92.4588V8.31098C92.803 7.84771 93.253 7.48371 93.8089 7.21898C94.3649 6.94102 94.9936 6.80204 95.6951 6.80204C96.529 6.80204 97.2702 6.98073 97.9188 7.33811C98.5806 7.69549 99.0969 8.20509 99.4675 8.86691C99.8513 8.25804 100.374 7.76167 101.036 7.37782C101.698 6.99396 102.419 6.80204 103.2 6.80204ZM117.684 4.06211V18H114.289V4.06211H117.684ZM123.54 8.48967C123.871 7.97345 124.327 7.55651 124.91 7.23884C125.492 6.92116 126.174 6.76233 126.955 6.76233C127.868 6.76233 128.695 6.99396 129.437 7.45724C130.178 7.92051 130.76 8.58233 131.184 9.44269C131.621 10.3031 131.839 11.3024 131.839 12.4407C131.839 13.5791 131.621 14.585 131.184 15.4586C130.76 16.319 130.178 16.9874 129.437 17.4639C128.695 17.9272 127.868 18.1588 126.955 18.1588C126.187 18.1588 125.505 18 124.91 17.6823C124.327 17.3647 123.871 16.9543 123.54 16.4513V23.2813H120.145V6.92116H123.54V8.48967ZM128.384 12.4407C128.384 11.5936 128.146 10.9318 127.669 10.4553C127.206 9.96553 126.63 9.72065 125.942 9.72065C125.267 9.72065 124.691 9.96553 124.215 10.4553C123.751 10.945 123.52 11.6135 123.52 12.4606C123.52 13.3077 123.751 13.9761 124.215 14.4659C124.691 14.9556 125.267 15.2005 125.942 15.2005C126.617 15.2005 127.193 14.9556 127.669 14.4659C128.146 13.9629 128.384 13.2879 128.384 12.4407ZM138.127 18.1588C137.161 18.1588 136.3 17.9934 135.546 17.6625C134.791 17.3316 134.196 16.8815 133.759 16.3124C133.322 15.73 133.077 15.0814 133.024 14.3666H136.38C136.42 14.7505 136.598 15.0615 136.916 15.2998C137.234 15.538 137.624 15.6572 138.087 15.6572C138.511 15.6572 138.835 15.5777 139.06 15.4189C139.298 15.2468 139.418 15.0284 139.418 14.7637C139.418 14.446 139.252 14.2144 138.921 14.0688C138.59 13.91 138.054 13.7379 137.313 13.5526C136.519 13.3673 135.857 13.1753 135.328 12.9768C134.798 12.765 134.341 12.4407 133.958 12.0039C133.574 11.5539 133.382 10.9516 133.382 10.1972C133.382 9.56182 133.554 8.98604 133.898 8.46982C134.255 7.94036 134.772 7.52342 135.447 7.21898C136.135 6.91454 136.949 6.76233 137.889 6.76233C139.279 6.76233 140.371 7.10647 141.165 7.79476C141.972 8.48305 142.435 9.39636 142.555 10.5347H139.418C139.365 10.1508 139.193 9.8464 138.901 9.62138C138.623 9.39636 138.253 9.28385 137.79 9.28385C137.392 9.28385 137.088 9.36327 136.876 9.52211C136.664 9.66771 136.559 9.87287 136.559 10.1376C136.559 10.4553 136.724 10.6935 137.055 10.8524C137.399 11.0112 137.929 11.17 138.643 11.3289C139.464 11.5407 140.132 11.7524 140.649 11.9642C141.165 12.1628 141.615 12.4937 141.999 12.9569C142.396 13.407 142.601 14.0159 142.614 14.7836C142.614 15.4321 142.429 16.0145 142.058 16.5308C141.701 17.0337 141.178 17.4308 140.49 17.722C139.815 18.0132 139.027 18.1588 138.127 18.1588ZM155.631 6.92116V18H152.236V16.4911C151.892 16.9808 151.422 17.3779 150.826 17.6823C150.244 17.9735 149.595 18.1191 148.881 18.1191C148.033 18.1191 147.286 17.9338 146.637 17.5632C145.988 17.1793 145.485 16.63 145.128 15.9153C144.771 15.2005 144.592 14.36 144.592 13.3937V6.92116H147.967V12.9371C147.967 13.6783 148.159 14.2541 148.543 14.6644C148.927 15.0748 149.443 15.2799 150.092 15.2799C150.754 15.2799 151.276 15.0748 151.66 14.6644C152.044 14.2541 152.236 13.6783 152.236 12.9371V6.92116H155.631ZM172.206 6.80204C173.583 6.80204 174.675 7.21898 175.482 8.05287C176.303 8.88676 176.713 10.0449 176.713 11.5274V18H173.338V11.9841C173.338 11.2693 173.146 10.72 172.762 10.3361C172.392 9.93905 171.875 9.74051 171.214 9.74051C170.552 9.74051 170.029 9.93905 169.645 10.3361C169.274 10.72 169.089 11.2693 169.089 11.9841V18H165.714V11.9841C165.714 11.2693 165.522 10.72 165.138 10.3361C164.767 9.93905 164.251 9.74051 163.589 9.74051C162.928 9.74051 162.405 9.93905 162.021 10.3361C161.65 10.72 161.465 11.2693 161.465 11.9841V18H158.07V6.92116H161.465V8.31098C161.809 7.84771 162.259 7.48371 162.815 7.21898C163.371 6.94102 164 6.80204 164.701 6.80204C165.535 6.80204 166.276 6.98073 166.925 7.33811C167.587 7.69549 168.103 8.20509 168.474 8.86691C168.858 8.25804 169.38 7.76167 170.042 7.37782C170.704 6.99396 171.425 6.80204 172.206 6.80204ZM45.69 31.6C45.69 30.6933 45.8713 29.904 46.234 29.232C46.5966 28.5493 47.098 28.0213 47.738 27.648C48.3886 27.2747 49.13 27.088 49.962 27.088C51.0393 27.088 51.9246 27.3493 52.618 27.872C53.322 28.3947 53.786 29.12 54.01 30.048H52.442C52.2926 29.5147 51.9993 29.0933 51.562 28.784C51.1353 28.4747 50.602 28.32 49.962 28.32C49.13 28.32 48.458 28.608 47.946 29.184C47.434 29.7493 47.178 30.5547 47.178 31.6C47.178 32.656 47.434 33.472 47.946 34.048C48.458 34.624 49.13 34.912 49.962 34.912C50.602 34.912 51.1353 34.7627 51.562 34.464C51.9886 34.1653 52.282 33.7387 52.442 33.184H54.01C53.7753 34.08 53.306 34.8 52.602 35.344C51.898 35.8773 51.018 36.144 49.962 36.144C49.13 36.144 48.3886 35.9573 47.738 35.584C47.098 35.2107 46.5966 34.6827 46.234 34C45.8713 33.3173 45.69 32.5173 45.69 31.6ZM59.7767 36.144C58.9554 36.144 58.2087 35.9573 57.5367 35.584C56.8754 35.2107 56.3527 34.6827 55.9687 34C55.5954 33.3067 55.4087 32.5067 55.4087 31.6C55.4087 30.704 55.6007 29.9147 55.9847 29.232C56.3794 28.5387 56.9127 28.0107 57.5847 27.648C58.2567 27.2747 59.0087 27.088 59.8407 27.088C60.6727 27.088 61.4247 27.2747 62.0967 27.648C62.7687 28.0107 63.2967 28.5333 63.6807 29.216C64.0754 29.8987 64.2727 30.6933 64.2727 31.6C64.2727 32.5067 64.07 33.3067 63.6647 34C63.27 34.6827 62.7314 35.2107 62.0487 35.584C61.366 35.9573 60.6087 36.144 59.7767 36.144ZM59.7767 34.864C60.2994 34.864 60.79 34.7413 61.2487 34.496C61.7074 34.2507 62.0754 33.8827 62.3527 33.392C62.6407 32.9013 62.7847 32.304 62.7847 31.6C62.7847 30.896 62.646 30.2987 62.3687 29.808C62.0914 29.3173 61.7287 28.9547 61.2807 28.72C60.8327 28.4747 60.3474 28.352 59.8247 28.352C59.2914 28.352 58.8007 28.4747 58.3527 28.72C57.9154 28.9547 57.5634 29.3173 57.2967 29.808C57.03 30.2987 56.8967 30.896 56.8967 31.6C56.8967 32.3147 57.0247 32.9173 57.2807 33.408C57.5474 33.8987 57.8994 34.2667 58.3367 34.512C58.774 34.7467 59.254 34.864 59.7767 34.864ZM76.7311 27.072C77.4137 27.072 78.0217 27.216 78.5551 27.504C79.0884 27.7813 79.5097 28.2027 79.8191 28.768C80.1284 29.3333 80.2831 30.0213 80.2831 30.832V36H78.8431V31.04C78.8431 30.1653 78.6244 29.4987 78.1871 29.04C77.7604 28.5707 77.1791 28.336 76.4431 28.336C75.6857 28.336 75.0831 28.5813 74.6351 29.072C74.1871 29.552 73.9631 30.2507 73.9631 31.168V36H72.5231V31.04C72.5231 30.1653 72.3044 29.4987 71.8671 29.04C71.4404 28.5707 70.8591 28.336 70.1231 28.336C69.3657 28.336 68.7631 28.5813 68.3151 29.072C67.8671 29.552 67.6431 30.2507 67.6431 31.168V36H66.1871V27.232H67.6431V28.496C67.9311 28.0373 68.3151 27.6853 68.7951 27.44C69.2857 27.1947 69.8244 27.072 70.4111 27.072C71.1471 27.072 71.7977 27.2373 72.3631 27.568C72.9284 27.8987 73.3497 28.384 73.6271 29.024C73.8724 28.4053 74.2777 27.9253 74.8431 27.584C75.4084 27.2427 76.0377 27.072 76.7311 27.072ZM84.1275 28.848C84.4155 28.3467 84.8421 27.9307 85.4075 27.6C85.9835 27.2587 86.6501 27.088 87.4075 27.088C88.1861 27.088 88.8901 27.2747 89.5195 27.648C90.1595 28.0213 90.6608 28.5493 91.0235 29.232C91.3861 29.904 91.5675 30.688 91.5675 31.584C91.5675 32.4693 91.3861 33.2587 91.0235 33.952C90.6608 34.6453 90.1595 35.184 89.5195 35.568C88.8901 35.952 88.1861 36.144 87.4075 36.144C86.6608 36.144 85.9995 35.9787 85.4235 35.648C84.8581 35.3067 84.4261 34.8853 84.1275 34.384V40.16H82.6715V27.232H84.1275V28.848ZM90.0795 31.584C90.0795 30.9227 89.9461 30.3467 89.6795 29.856C89.4128 29.3653 89.0501 28.992 88.5915 28.736C88.1435 28.48 87.6475 28.352 87.1035 28.352C86.5701 28.352 86.0741 28.4853 85.6155 28.752C85.1675 29.008 84.8048 29.3867 84.5275 29.888C84.2608 30.3787 84.1275 30.9493 84.1275 31.6C84.1275 32.2613 84.2608 32.8427 84.5275 33.344C84.8048 33.8347 85.1675 34.2133 85.6155 34.48C86.0741 34.736 86.5701 34.864 87.1035 34.864C87.6475 34.864 88.1435 34.736 88.5915 34.48C89.0501 34.2133 89.4128 33.8347 89.6795 33.344C89.9461 32.8427 90.0795 32.256 90.0795 31.584ZM92.94 31.584C92.94 30.688 93.1213 29.904 93.484 29.232C93.8466 28.5493 94.3426 28.0213 94.972 27.648C95.612 27.2747 96.3213 27.088 97.1 27.088C97.868 27.088 98.5346 27.2533 99.1 27.584C99.6653 27.9147 100.087 28.3307 100.364 28.832V27.232H101.836V36H100.364V34.368C100.076 34.88 99.644 35.3067 99.068 35.648C98.5026 35.9787 97.8413 36.144 97.084 36.144C96.3053 36.144 95.6013 35.952 94.972 35.568C94.3426 35.184 93.8466 34.6453 93.484 33.952C93.1213 33.2587 92.94 32.4693 92.94 31.584ZM100.364 31.6C100.364 30.9387 100.231 30.3627 99.964 29.872C99.6973 29.3813 99.3346 29.008 98.876 28.752C98.428 28.4853 97.932 28.352 97.388 28.352C96.844 28.352 96.348 28.48 95.9 28.736C95.452 28.992 95.0946 29.3653 94.828 29.856C94.5613 30.3467 94.428 30.9227 94.428 31.584C94.428 32.256 94.5613 32.8427 94.828 33.344C95.0946 33.8347 95.452 34.2133 95.9 34.48C96.348 34.736 96.844 34.864 97.388 34.864C97.932 34.864 98.428 34.736 98.876 34.48C99.3346 34.2133 99.6973 33.8347 99.964 33.344C100.231 32.8427 100.364 32.2613 100.364 31.6ZM108.568 27.072C109.635 27.072 110.499 27.3973 111.16 28.048C111.822 28.688 112.152 29.616 112.152 30.832V36H110.712V31.04C110.712 30.1653 110.494 29.4987 110.056 29.04C109.619 28.5707 109.022 28.336 108.264 28.336C107.496 28.336 106.883 28.576 106.424 29.056C105.976 29.536 105.752 30.2347 105.752 31.152V36H104.296V27.232H105.752V28.48C106.04 28.032 106.43 27.6853 106.92 27.44C107.422 27.1947 107.971 27.072 108.568 27.072ZM122.083 27.232L116.803 40.128H115.299L117.027 35.904L113.491 27.232H115.107L117.859 34.336L120.579 27.232H122.083Z" fill="#111928"/>
  <defs>
    <linearGradient id="paint0_linear_1_2118" x1="18.3774" y1="35.2662" x2="19.6207" y2="16.9944" gradientUnits="userSpaceOnUse">
      <stop stop-color="#26C2FF"/>
      <stop offset="1" stop-color="#110687"/>
    </linearGradient>
    <linearGradient id="paint1_linear_1_2118" x1="26.9015" y1="8.38366" x2="12.6208" y2="30.4091" gradientUnits="userSpaceOnUse">
      <stop stop-color="#26C2FF"/>
      <stop offset="1" stop-color="#005EBD"/>
    </linearGradient>
    <linearGradient id="paint2_linear_1_2118" x1="20.7904" y1="3.58649" x2="5.97005" y2="26.4495" gradientUnits="userSpaceOnUse">
      <stop stop-color="#26C2FF"/>
      <stop offset="1" stop-color="#005EBD"/>
    </linearGradient>
  </defs>
</svg>
