<svg width="24" height="24" viewBox="0 0 24 24" fill="none" xmlns="http://www.w3.org/2000/svg">
  <path fill-rule="evenodd" clip-rule="evenodd" d="M14.7779 11.1652C13.9565 11.714 12.9909 12.0072 12.0031 12.0078H11.9969C10.6719 12.007 9.40142 11.4803 8.46447 10.5433C7.52678 9.60567 7 8.3339 7 7.00781C7 6.01891 7.29324 5.05221 7.84265 4.22996C8.39206 3.40772 9.17295 2.76686 10.0866 2.38842C11.0002 2.00998 12.0055 1.91096 12.9755 2.10389C13.9454 2.29681 14.8363 2.77302 15.5355 3.47228C16.2348 4.17154 16.711 5.06246 16.9039 6.03236C17.0969 7.00227 16.9978 8.0076 16.6194 8.92123C16.241 9.83486 15.6001 10.6158 14.7779 11.1652ZM12 10.0078C12.5933 10.0078 13.1734 9.83187 13.6667 9.50222C14.1601 9.17258 14.5446 8.70404 14.7716 8.15586C14.9987 7.60768 15.0581 7.00449 14.9424 6.42254C14.8266 5.8406 14.5409 5.30605 14.1213 4.88649C13.7018 4.46694 13.1672 4.18121 12.5853 4.06546C12.0033 3.9497 11.4001 4.00911 10.852 4.23618C10.3038 4.46324 9.83524 4.84776 9.50559 5.3411C9.17595 5.83445 9 6.41447 9 7.00781C9 7.80346 9.31607 8.56652 9.87868 9.12913C10.4413 9.69174 11.2044 10.0078 12 10.0078ZM19 19C19 19.2652 18.8946 19.5196 18.7071 19.7071C18.5196 19.8946 18.2652 20 18 20H6C5.73478 20 5.48043 19.8946 5.29289 19.7071C5.10536 19.5196 5 19.2652 5 19C5 18.2044 5.31607 17.4413 5.87868 16.8787C6.44129 16.3161 7.20435 16 8 16H16C16.7956 16 17.5587 16.3161 18.1213 16.8787C18.6839 17.4413 19 18.2044 19 19ZM4.46447 15.4645C5.40215 14.5268 6.67392 14 8 14H16C17.3261 14 18.5979 14.5268 19.5355 15.4645C20.4732 16.4021 21 17.6739 21 19C21 19.7956 20.6839 20.5587 20.1213 21.1213C19.5587 21.6839 18.7956 22 18 22H6C5.20435 22 4.44129 21.6839 3.87868 21.1213C3.31607 20.5587 3 19.7956 3 19C3 17.6739 3.52678 16.4021 4.46447 15.4645Z" fill="#4B5563"/>
</svg>
